HIERARCHY
ROOT Hips
{
	OFFSET 0.00000 0.00000 0.00000
	CHANNELS 6 Xposition Yposition Zposition Zrotation Yrotation Xrotation 
	JOINT LHipJoint
	{
		OFFSET 0 0 0
		CHANNELS 3 Zrotation Yrotation Xrotation
		JOINT LeftUpLeg
		{
			OFFSET 1.58895 -1.83665 0.71753
			CHANNELS 3 Zrotation Yrotation Xrotation
			JOINT LeftLeg
			{
				OFFSET 2.50528 -6.88321 0.00000
				CHANNELS 3 Zrotation Yrotation Xrotation
				JOINT LeftFoot
				{
					OFFSET 2.63244 -7.23257 0.00000
					CHANNELS 3 Zrotation Yrotation Xrotation
					JOINT LeftToeBase
					{
						OFFSET 0.23691 -0.65090 1.72750
						CHANNELS 3 Zrotation Yrotation Xrotation
						End Site
						{
							OFFSET 0.00000 -0.00000 0.92561
						}
					}
				}
			}
		}
	}
	JOINT RHipJoint
	{
		OFFSET 0 0 0
		CHANNELS 3 Zrotation Yrotation Xrotation
		JOINT RightUpLeg
		{
			OFFSET -1.51435 -1.83665 0.71753
			CHANNELS 3 Zrotation Yrotation Xrotation
			JOINT RightLeg
			{
				OFFSET -2.54551 -6.99375 0.00000
				CHANNELS 3 Zrotation Yrotation Xrotation
				JOINT RightFoot
				{
					OFFSET -2.66027 -7.30903 0.00000
					CHANNELS 3 Zrotation Yrotation Xrotation
					JOINT RightToeBase
					{
						OFFSET -0.22981 -0.63138 2.03959
						CHANNELS 3 Zrotation Yrotation Xrotation
						End Site
						{
							OFFSET -0.00000 -0.00000 1.07060
						}
					}
				}
			}
		}
	}
	JOINT LowerBack
	{
		OFFSET 0 0 0
		CHANNELS 3 Zrotation Yrotation Xrotation
		JOINT Spine
		{
			OFFSET -0.02651 1.86275 -0.11152
			CHANNELS 3 Zrotation Yrotation Xrotation
			JOINT Spine1
			{
				OFFSET 0.01019 1.86224 0.04087
				CHANNELS 3 Zrotation Yrotation Xrotation
				JOINT Neck
				{
					OFFSET 0 0 0
					CHANNELS 3 Zrotation Yrotation Xrotation
					JOINT Neck1
					{
						OFFSET -0.01926 1.80512 0.08867
						CHANNELS 3 Zrotation Yrotation Xrotation
						JOINT Head
						{
							OFFSET 0.05516 1.76451 -0.38475
							CHANNELS 3 Zrotation Yrotation Xrotation
							End Site
							{
								OFFSET 0.01592 1.82587 -0.14001
							}
						}
					}
				}
				JOINT LeftShoulder
				{
					OFFSET 0 0 0
					CHANNELS 3 Zrotation Yrotation Xrotation
					JOINT LeftArm
					{
						OFFSET 3.47116 1.51376 0.14491
						CHANNELS 3 Zrotation Yrotation Xrotation
						JOINT LeftForeArm
						{
							OFFSET 4.78095 -0.00000 0.00000
							CHANNELS 3 Zrotation Yrotation Xrotation
							JOINT LeftHand
							{
								OFFSET 3.58615 -0.00000 -0.00000
								CHANNELS 3 Zrotation Yrotation Xrotation
								JOINT LeftFingerBase
								{
									OFFSET 0 0 0
									CHANNELS 3 Zrotation Yrotation Xrotation
									JOINT LeftHandIndex1
									{
										OFFSET 0.65981 -0.00000 0.00000
										CHANNELS 3 Zrotation Yrotation Xrotation
										End Site
										{
											OFFSET 0.53196 -0.00000 0.00000
										}
									}
								}
								JOINT LThumb
								{
									OFFSET 0 0 0
									CHANNELS 3 Zrotation Yrotation Xrotation
									End Site
									{
										OFFSET 0.54008 -0.00000 0.54008
									}
								}
							}
						}
					}
				}
				JOINT RightShoulder
				{
					OFFSET 0 0 0
					CHANNELS 3 Zrotation Yrotation Xrotation
					JOINT RightArm
					{
						OFFSET -3.31725 1.61216 0.35156
						CHANNELS 3 Zrotation Yrotation Xrotation
						JOINT RightForeArm
						{
							OFFSET -4.48913 -0.00000 0.00000
							CHANNELS 3 Zrotation Yrotation Xrotation
							JOINT RightHand
							{
								OFFSET -3.70510 -0.00000 0.00000
								CHANNELS 3 Zrotation Yrotation Xrotation
								JOINT RightFingerBase
								{
									OFFSET 0 0 0
									CHANNELS 3 Zrotation Yrotation Xrotation
									JOINT RightHandIndex1
									{
										OFFSET -0.44914 -0.00000 0.00000
										CHANNELS 3 Zrotation Yrotation Xrotation
										End Site
										{
											OFFSET -0.36211 -0.00000 0.00000
										}
									}
								}
								JOINT RThumb
								{
									OFFSET 0 0 0
									CHANNELS 3 Zrotation Yrotation Xrotation
									End Site
									{
										OFFSET -0.36763 -0.00000 0.36763
									}
								}
							}
						}
					}
				}
			}
		}
	}
}
MOTION
Frames: 15
Frame Time: .0083333
-0.9151 18.1264 5.6949 0 0 0 0 0 0 -21 0 0 0 0 0 0 0 0 0 0 0 0 0 0 21 0 0 0 0 0 0 0 0 0 0 0 0 0 0 0 0 0 0 0 0 0 0 -16 0 0 21 0 0 11 0 0 0 -8 0 0 0 0 0 0 0 0 0 0 0 0 0 0 0 0 0 0 0 0 8 0 0 0 0 0 0 0 0 0 0 0 0 0 0 0 0 0
-0.9151 18.1264 5.6949 -4.7119 -3.5861 -1.3077 0.0000 0.0000 0.0000 -11.9073 -1.4841 21.0969 0.9306 -6.1454 -17.2067 -1.1438 19.2451 -12.9120 0.1343 -2.3622 -6.5079 0.0000 0.0000 0.0000 0.0000 0.0000 0.0000 0.0000 0.0000 0.0000 -0.0000 -0.0000 0.0000 -0.0000 -0.0000 0.0000 3.8868 1.3135 3.8020 0.6796 1.9958 -1.9750 -1.6191 0.8954 -4.0664 0.2121 -1.2097 -10.5544 1.3084 -2.0170 21.1576 0.1948 -0.8091 8.3139 -0.0000 -0.0000 0.0000 -92.2947 13.0702 23.6066 20.5118 -31.2541 -5.7946 -0.0000 -0.0000 14.1412 1.1846 -25.6521 -0.5129 -7.1250 0.0000 -0.0000 -17.1713 5.2573 16.2916 -0.0000 -0.0000 0.0000 94.1889 -20.2685 15.9217 -25.3042 36.5133 -8.4703 0.0000 0.0000 15.6730 -5.3016 -28.3023 2.5192 7.1250 -0.0000 -0.0000 27.2664 -56.2207 -7.9176
-0.9150 18.1264 5.6953 -4.7306 -3.6324 -1.3336 0.0000 0.0000 0.0000 -11.8780 -1.3969 21.1046 0.9306 -6.1453 -17.2066 -1.1419 19.2265 -12.8876 0.1415 -2.4243 -6.6799 0.0000 0.0000 0.0000 0.0000 0.0000 0.0000 0.0000 0.0000 0.0000 -0.0000 -0.0000 0.0000 -0.0000 -0.0000 0.0000 3.9012 1.3204 3.8226 0.6893 2.0072 -1.9763 -1.6185 0.9005 -4.0787 0.2354 -1.2037 -10.5157 1.2828 -2.0070 21.1456 0.1836 -0.8055 8.3021 0.0000 -0.0000 0.0000 -92.2996 13.0857 23.5820 20.5196 -31.2633 -5.7986 -0.0000 -0.0000 14.1640 1.1355 -25.6859 -0.4922 -7.1250 0.0000 -0.0000 -17.1993 5.2283 16.3307 0.0000 -0.0000 0.0000 94.1873 -20.2826 15.9402 -25.3005 36.5096 -8.4681 0.0000 0.0000 15.7161 -5.2620 -28.3944 2.5078 7.1250 -0.0000 -0.0000 27.3729 -56.2939 -8.0018
-0.9145 18.1254 5.6942 -4.7383 -3.6199 -1.3459 0.0000 0.0000 0.0000 -11.8641 -1.3507 21.0747 0.9279 -6.1366 -17.1814 -1.1373 19.1820 -12.8294 0.1477 -2.4767 -6.8249 0.0000 0.0000 0.0000 0.0000 0.0000 0.0000 0.0000 0.0000 0.0000 -0.0000 -0.0000 0.0000 -0.0000 -0.0000 0.0000 3.9203 1.3161 3.8524 0.6908 2.0045 -1.9904 -1.6285 0.8978 -4.1099 0.2170 -1.2086 -10.4499 1.3152 -2.0163 21.1064 0.1971 -0.8088 8.2775 -0.0000 -0.0000 0.0000 -92.2916 13.1275 23.6248 20.5583 -31.3091 -5.8187 -0.0000 -0.0000 14.1028 1.0608 -25.5827 -0.4581 -7.1250 0.0000 -0.0000 -17.2454 5.3319 16.3436 -0.0000 -0.0000 0.0000 94.1880 -20.2982 15.9379 -25.2857 36.4946 -8.4592 0.0000 0.0000 15.7426 -5.2883 -28.5029 2.5291 7.1250 -0.0000 -0.0000 27.4279 -56.3949 -8.0886
-0.9144 18.1249 5.6933 -4.7115 -3.6083 -1.3480 0.0000 0.0000 0.0000 -11.8959 -1.3628 21.0670 0.9270 -6.1336 -17.1726 -1.1392 19.1956 -12.8322 0.1412 -2.4216 -6.6723 0.0000 0.0000 0.0000 0.0000 0.0000 0.0000 0.0000 0.0000 0.0000 -0.0000 -0.0000 0.0000 -0.0000 -0.0000 0.0000 3.8839 1.3144 3.8584 0.6945 2.0007 -1.9928 -1.6043 0.8968 -4.1172 0.1709 -1.2135 -10.4413 1.3723 -2.0263 21.0941 0.2229 -0.8117 8.2730 0.0000 0.0000 0.0000 -92.2771 13.1735 23.7532 20.6171 -31.3787 -5.8493 -0.0000 -0.0000 14.0067 1.0896 -25.4653 -0.4686 -7.1250 0.0000 -0.0000 -17.2311 5.4421 16.2910 0.0000 0.0000 0.0000 94.1803 -20.2997 15.9162 -25.2830 36.4919 -8.4577 0.0000 0.0000 15.7588 -5.1958 -28.6007 2.4925 7.1250 -0.0000 -0.0000 27.5912 -56.4624 -8.1884
-0.9145 18.1253 5.6927 -4.6662 -3.6123 -1.3478 0.0000 0.0000 0.0000 -11.9496 -1.3846 21.0729 0.9270 -6.1336 -17.1726 -1.1409 19.2176 -12.8792 0.1356 -2.3737 -6.5396 0.0000 0.0000 0.0000 0.0000 0.0000 0.0000 0.0000 0.0000 0.0000 -0.0000 -0.0000 0.0000 -0.0000 -0.0000 0.0000 3.8281 1.3183 3.8692 0.6934 2.0034 -1.9933 -1.5748 0.8995 -4.1254 0.1341 -1.2087 -10.4605 1.4201 -2.0231 21.0924 0.2452 -0.8081 8.2768 -0.0000 -0.0000 0.0000 -92.2456 13.2166 23.9262 20.6763 -31.4485 -5.8801 -0.0000 -0.0000 13.8732 1.1455 -25.3799 -0.4911 -7.1250 0.0000 -0.0000 -17.2002 5.5199 16.2322 -0.0000 -0.0000 0.0000 94.1661 -20.2981 15.9083 -25.2817 36.4906 -8.4569 0.0000 0.0000 15.6879 -4.9184 -28.7292 2.3686 7.1250 -0.0000 -0.0000 27.9582 -56.5190 -8.3490
-0.9136 18.1251 5.6919 -4.6802 -3.6235 -1.3453 0.0000 0.0000 0.0000 -11.9297 -1.3478 21.0573 0.9274 -6.1348 -17.1761 -1.1375 19.1881 -12.8484 0.1459 -2.4618 -6.7838 0.0000 0.0000 0.0000 0.0000 0.0000 0.0000 0.0000 0.0000 0.0000 -0.0000 -0.0000 0.0000 -0.0000 -0.0000 0.0000 3.8511 1.3173 3.8899 0.7043 2.0050 -1.9986 -1.5772 0.8994 -4.1422 0.1023 -1.1998 -10.4583 1.4709 -2.0155 21.0854 0.2683 -0.8021 8.2749 0.0000 -0.0000 0.0000 -92.2414 13.2183 23.9941 20.6871 -31.4613 -5.8858 -0.0000 -0.0000 13.7704 1.1484 -25.3382 -0.4915 -7.1250 0.0000 -0.0000 -17.1995 5.5594 16.2179 0.0000 -0.0000 0.0000 94.1413 -20.3067 15.9344 -25.2864 36.4953 -8.4597 0.0000 0.0000 15.6332 -4.6640 -29.3617 2.2907 7.1250 -0.0000 -0.0000 28.6945 -57.0193 -8.9518
-0.9124 18.1243 5.6908 -4.7130 -3.6307 -1.3418 0.0000 0.0000 0.0000 -11.8988 -1.3703 21.0675 0.9281 -6.1373 -17.1834 -1.1386 19.1979 -12.8587 0.1507 -2.5014 -6.8936 0.0000 0.0000 0.0000 0.0000 0.0000 0.0000 0.0000 0.0000 0.0000 -0.0000 -0.0000 0.0000 -0.0000 -0.0000 0.0000 3.8946 1.3083 3.9047 0.7176 1.9968 -2.0034 -1.5877 0.8940 -4.1553 0.1043 -1.1924 -10.4535 1.4619 -2.0036 21.0831 0.2662 -0.7973 8.2730 -0.0000 -0.0000 0.0000 -92.2652 13.1891 23.9401 20.6491 -31.4165 -5.8660 -0.0000 -0.0000 13.7873 1.1568 -25.3666 -0.4956 -7.1250 0.0000 -0.0000 -17.1939 5.5319 16.2216 -0.0000 -0.0000 0.0000 94.1198 -20.3224 15.9718 -25.2971 36.5061 -8.4660 0.0000 0.0000 15.6593 -4.5751 -30.3411 2.3148 7.1250 -0.0000 -0.0000 29.5751 -57.8494 -9.8677
-0.9119 18.1241 5.6902 -4.7180 -3.6359 -1.3517 0.0000 0.0000 0.0000 -11.9102 -1.4586 21.1285 0.9298 -6.1425 -17.1986 -1.1456 19.2648 -12.9460 0.1428 -2.4354 -6.7105 0.0000 0.0000 0.0000 0.0000 0.0000 0.0000 0.0000 0.0000 0.0000 -0.0000 -0.0000 0.0000 -0.0000 -0.0000 0.0000 3.9141 1.3076 3.9229 0.7138 1.9976 -2.0003 -1.6031 0.8937 -4.1616 0.1414 -1.1887 -10.4601 1.4121 -1.9946 21.0731 0.2443 -0.7951 8.2699 0.0000 0.0000 0.0000 -92.2685 13.1560 23.8835 20.5987 -31.3569 -5.8397 -0.0000 -0.0000 13.8856 1.1946 -25.4426 -0.5133 -7.1250 0.0000 -0.0000 -17.1699 5.4568 16.2223 0.0000 0.0000 0.0000 94.1300 -20.3252 15.9651 -25.2970 36.5061 -8.4660 0.0000 0.0000 15.7073 -4.6061 -30.8894 2.3684 7.1250 -0.0000 -0.0000 30.0090 -58.3278 -10.3837
-0.9117 18.1242 5.6906 -4.7064 -3.6480 -1.3618 0.0000 0.0000 0.0000 -11.9347 -1.4948 21.1666 0.9309 -6.1463 -17.2094 -1.1512 19.3093 -12.9774 0.1402 -2.4134 -6.6496 0.0000 0.0000 0.0000 0.0000 0.0000 0.0000 0.0000 0.0000 0.0000 -0.0000 -0.0000 0.0000 -0.0000 -0.0000 0.0000 3.9183 1.3145 3.9385 0.7055 2.0075 -1.9996 -1.6150 0.8982 -4.1687 0.1605 -1.1895 -10.4570 1.3928 -1.9950 21.0602 0.2347 -0.7958 8.2646 0.0000 0.0000 0.0000 -92.2681 13.1326 23.8396 20.5605 -31.3117 -5.8198 -0.0000 -0.0000 13.9741 1.2038 -25.5413 -0.5191 -7.1250 0.0000 -0.0000 -17.1624 5.3619 16.2467 0.0000 0.0000 0.0000 94.1445 -20.3350 15.9439 -25.2996 36.5086 -8.4675 0.0000 0.0000 15.7358 -4.8032 -30.8897 2.4701 7.1250 -0.0000 -0.0000 29.8151 -58.3711 -10.3402
-0.9115 18.1249 5.6915 -4.7031 -3.6627 -1.3565 0.0000 0.0000 0.0000 -11.9335 -1.4482 21.1520 0.9312 -6.1473 -17.2123 -1.1466 19.2746 -12.9596 0.1396 -2.4078 -6.6340 0.0000 0.0000 0.0000 0.0000 0.0000 0.0000 0.0000 0.0000 0.0000 -0.0000 -0.0000 0.0000 -0.0000 -0.0000 0.0000 3.9178 1.3172 3.9493 0.7104 2.0123 -2.0161 -1.6107 0.9000 -4.1920 0.1349 -1.1937 -10.4515 1.4027 -1.9985 21.0914 0.2419 -0.7983 8.2744 0.0000 0.0000 0.0000 -92.2654 13.1576 23.8614 20.5604 -31.3116 -5.8198 -0.0000 -0.0000 13.9409 1.2016 -25.5625 -0.5186 -7.1250 0.0000 -0.0000 -17.1632 5.3418 16.2544 0.0000 0.0000 0.0000 94.1263 -20.3833 15.9685 -25.3122 36.5214 -8.4750 0.0000 0.0000 15.7420 -5.1808 -30.7570 2.6548 7.1250 -0.0000 -0.0000 29.3291 -58.3394 -10.1292
-0.9115 18.1253 5.6914 -4.7109 -3.6705 -1.3506 0.0000 0.0000 0.0000 -11.9151 -1.4061 21.1329 0.9313 -6.1475 -17.2129 -1.1414 19.2394 -12.9581 0.1367 -2.3827 -6.5644 0.0000 0.0000 0.0000 0.0000 0.0000 0.0000 0.0000 0.0000 0.0000 -0.0000 -0.0000 0.0000 -0.0000 -0.0000 0.0000 3.9203 1.3158 3.9664 0.7181 2.0123 -2.0318 -1.6049 0.8993 -4.2182 0.1327 -1.1950 -10.4589 1.3829 -1.9966 21.1348 0.2357 -0.7991 8.2901 0.0000 0.0000 0.0000 -92.2493 13.1922 23.9172 20.5713 -31.3244 -5.8254 -0.0000 -0.0000 13.8644 1.2016 -25.5771 -0.5188 -7.1250 0.0000 -0.0000 -17.1629 5.3278 16.2588 0.0000 0.0000 0.0000 94.1024 -20.4138 15.9969 -25.2889 36.4978 -8.4612 0.0000 0.0000 15.6619 -5.4314 -31.0822 2.8102 7.1250 -0.0000 -0.0000 29.3602 -58.6753 -10.3826
-0.9115 18.1240 5.6906 -4.7007 -3.6681 -1.3576 0.0000 0.0000 0.0000 -11.9277 -1.4332 21.1411 0.9315 -6.1482 -17.2151 -1.1448 19.2671 -12.9788 0.1335 -2.3547 -6.4870 0.0000 0.0000 0.0000 0.0000 0.0000 0.0000 0.0000 0.0000 0.0000 -0.0000 -0.0000 0.0000 -0.0000 -0.0000 0.0000 3.9039 1.3116 3.9771 0.7179 2.0060 -2.0252 -1.5956 0.8967 -4.2182 0.1611 -1.1932 -10.4642 1.3383 -1.9898 21.1327 0.2168 -0.7981 8.2896 0.0000 -0.0000 0.0000 -92.2487 13.1929 23.9081 20.5812 -31.3362 -5.8306 -0.0000 -0.0000 13.8700 1.1896 -25.6337 -0.5147 -7.1250 0.0000 -0.0000 -17.1687 5.2746 16.2830 0.0000 -0.0000 0.0000 94.0888 -20.3948 16.0040 -25.2429 36.4512 -8.4338 0.0000 0.0000 15.4888 -5.4924 -31.7412 2.8959 7.1250 -0.0000 -0.0000 29.8817 -59.2558 -11.0119
-0.9112 18.1239 5.6899 -4.6992 -3.6501 -1.3632 0.0000 0.0000 0.0000 -11.9319 -1.4651 21.1487 0.9318 -6.1491 -17.2177 -1.1455 19.2777 -13.0062 0.1272 -2.2993 -6.3335 0.0000 0.0000 0.0000 0.0000 0.0000 0.0000 0.0000 0.0000 0.0000 -0.0000 -0.0000 0.0000 -0.0000 -0.0000 0.0000 3.9137 1.3071 3.9853 0.7147 2.0005 -2.0165 -1.6041 0.8939 -4.2138 0.1494 -1.1963 -10.4645 1.3480 -1.9938 21.1228 0.2216 -0.8000 8.2865 -0.0000 0.0000 0.0000 -92.2339 13.1980 23.9425 20.6109 -31.3713 -5.8460 -0.0000 -0.0000 13.8809 1.2230 -25.6155 -0.5288 -7.1250 0.0000 -0.0000 -17.1495 5.2898 16.2579 -0.0000 0.0000 0.0000 94.0998 -20.3882 15.9907 -25.2651 36.4737 -8.4470 0.0000 0.0000 15.4569 -5.3397 -31.8866 2.8266 7.1250 -0.0000 -0.0000 30.1653 -59.3458 -11.1946
-0.9108 18.1246 5.6902 -4.6925 -3.6597 -1.3433 0.0000 0.0000 0.0000 -11.9447 -1.4674 21.1308 0.9308 -6.1459 -17.2084 -1.1460 19.2840 -13.0171 0.1292 -2.3170 -6.3825 0.0000 0.0000 0.0000 0.0000 0.0000 0.0000 0.0000 0.0000 0.0000 -0.0000 -0.0000 0.0000 -0.0000 -0.0000 0.0000 3.9256 1.3114 3.9704 0.7039 2.0061 -2.0270 -1.6220 0.8960 -4.2151 0.1227 -1.1957 -10.4657 1.3876 -1.9971 21.1557 0.2389 -0.7994 8.2986 -0.0000 -0.0000 0.0000 -92.2015 13.2147 23.9856 20.6219 -31.3843 -5.8518 -0.0000 -0.0000 13.8831 1.2615 -25.6136 -0.5454 -7.1250 0.0000 -0.0000 -17.1270 5.2890 16.2346 -0.0000 -0.0000 0.0000 94.1200 -20.4160 15.9905 -25.3313 36.5407 -8.4864 0.0000 0.0000 15.6064 -4.9556 -31.3043 2.5795 7.1250 -0.0000 -0.0000 30.0253 -58.7607 -10.7084
